<svg viewBox="0 0 24 24" xmlns="http://www.w3.org/2000/svg"><path d="M23.374 1.07A1.054 1.054 0 0022.46.52H1.539c-.365 0-.73.21-.913.548-.183.34-.105.757.104 1.07l8.14 11.948v7.904c0 .809.547 1.487 1.382 1.487h3.495c.81 0 1.383-.652 1.383-1.487v-7.904l8.14-11.948c.208-.313.286-.73.104-1.07zM13.278 13.2c-.13.156-.235.365-.235.574v7.617h-2.087v-7.617c0-.209-.104-.418-.235-.574L8.243 9.574c.522-.157 1.148-.313 1.826-.287.809 0 1.357.156 1.957.313.626.156 1.252.313 2.139.339.522 0 .991-.026 1.409-.078L13.278 13.2zm3.809-5.583c-.026 0-1.122.496-2.922.47-.652 0-1.148-.13-1.696-.287-.626-.157-1.356-.34-2.4-.365-1.174 0-2.217.286-2.921.547L3.52 2.608h16.983l-3.417 5.01zm-2.14-1.722a1.097 1.097 0 01-.313-.73c0-.287.105-.548.313-.73.183-.183.47-.314.731-.314.287 0 .548.105.73.314.183.208.313.47.313.73a.947.947 0 01-.313.73c-.208.183-.47.313-.73.313s-.548-.13-.73-.313z" /></svg>