<svg viewBox="0 0 24 24" xmlns="http://www.w3.org/2000/svg"><path d="M12 6.183A5.823 5.823 0 006.183 12 5.823 5.823 0 0012 17.817 5.823 5.823 0 0017.817 12 5.823 5.823 0 0012 6.183zM8.27 12A3.73 3.73 0 0112 8.27v7.434C9.94 15.73 8.27 14.061 8.27 12zm2.687-8.791V1.043C10.957.47 11.427 0 12 0c.574 0 1.043.47 1.043 1.043V3.21c0 .574-.47 1.043-1.043 1.043-.574 0-1.043-.47-1.043-1.043zM24 12c0 .574-.47 1.043-1.044 1.043h-2.165c-.574 0-1.043-.47-1.043-1.043 0-.574.47-1.043 1.043-1.043h2.165c.574 0 1.044.47 1.044 1.043zm-10.957 8.791v2.165c0 .574-.47 1.044-1.043 1.044-.574 0-1.043-.47-1.043-1.044v-2.165c0-.574.47-1.043 1.043-1.043.574 0 1.043.47 1.043 1.043zM3.21 13.043H1.043C.47 13.043 0 12.573 0 12c0-.574.47-1.043 1.043-1.043H3.21c.574 0 1.043.47 1.043 1.043 0 .574-.47 1.043-1.043 1.043zm14.27-6.521a1.04 1.04 0 010-1.487l1.512-1.513a1.04 1.04 0 011.487 0 1.04 1.04 0 010 1.487l-1.513 1.513a1.03 1.03 0 01-.73.313c-.287-.026-.548-.105-.757-.313zm3 12.495a1.04 1.04 0 010 1.487 1.03 1.03 0 01-.731.313 1.03 1.03 0 01-.73-.313l-1.54-1.539a1.04 1.04 0 010-1.487 1.04 1.04 0 011.487 0l1.513 1.54zM6.521 17.478a1.04 1.04 0 010 1.487l-1.513 1.513a1.03 1.03 0 01-.73.313 1.03 1.03 0 01-.731-.313 1.04 1.04 0 010-1.487l1.513-1.513c.391-.391 1.043-.391 1.46 0zm-3-12.495a1.04 1.04 0 010-1.487 1.04 1.04 0 011.487 0l1.513 1.513a1.04 1.04 0 010 1.487 1.03 1.03 0 01-.73.313 1.03 1.03 0 01-.731-.313L3.52 4.983z"/></svg>