<svg viewBox="0 0 24 24" xmlns="http://www.w3.org/2000/svg"><path d="M23.06 21.704a1.04 1.04 0 010 1.487 1.03 1.03 0 01-.73.313 1.09 1.09 0 01-.756-.313l-5.661-5.66v2.686c0 .574-.47 1.044-1.043 1.044-.574 0-1.044-.47-1.044-1.044V15c0-.287.13-.548.313-.73.209-.183.47-.313.757-.313h5.217c.574 0 1.044.47 1.044 1.043 0 .574-.47 1.044-1.044 1.044h-2.687l5.635 5.66zm-8.216-11.53h5.217c.574 0 1.043-.47 1.043-1.044 0-.573-.47-1.043-1.043-1.043h-2.687l5.791-5.791c.418-.418.418-1.07 0-1.461a1.031 1.031 0 00-1.46 0l-5.792 5.791V3.94c0-.574-.47-1.07-1.043-1.07-.574 0-1.044.47-1.044 1.044V9.13c0 .287.104.522.313.73a.932.932 0 00.705.314zm-5.74-7.226c-.574 0-1.017.47-1.017 1.043v2.687L2.322.913a1.088 1.088 0 00-1.487 0c-.418.417-.418 1.044 0 1.435L6.574 8.06H3.913v.026c-.522 0-1.07.496-1.07 1.07 0 .573.47 1.043 1.044 1.043h5.217c.261 0 .522-.104.73-.313a.998.998 0 00.288-.73V3.939c.026-.522-.444-.991-1.018-.991zm-.052 10.878H3.835c-.574 0-1.044.47-1.044 1.044 0 .574.47 1.043 1.044 1.043h2.687l-5.687 5.74c-.418.417-.418 1.095 0 1.486.208.209.47.313.756.313.261 0 .574-.104.783-.313l5.713-5.66v2.686c0 .574.417.965.991.965h-.026c.574 0 1.044-.417 1.044-.99v-5.192c0-.287-.105-.574-.313-.783a.97.97 0 00-.73-.339z"/></svg>