<svg viewBox="0 0 24 24" xmlns="http://www.w3.org/2000/svg"><path d="M12 5.713c-.182-.183-.417-.235-.652-.235h-7.8c-.522 0-1.2.313-1.2.809V22.8c0 .522.678 1.174 1.2 1.174h12.365c.522 0 .783-.678.783-1.174V10.904c0-.234-.026-.443-.209-.626L12 5.713zm2.583 5.244h-3.366V7.59l3.366 3.365zM4.435 21.913V7.304H9.39v4.487c0 .522.47.992.992.992h4.487v9.13H4.435zm17.06-17.217L16.958.156C16.8.027 16.644 0 16.435 0h-7.8c-.444 0-.809.235-.809.652v2.505c0 .443.34.782.783.782a.785.785 0 00.782-.782V1.565h5.479v4.409c0 .443.365.809.808.809h4.409v9.652h-1.07a.769.769 0 00-.782.782c0 .444.365.783.782.783H21c.444 0 .652-.391.652-.835V5.27c0-.21-.026-.418-.156-.574zm-5.06-2.87L19.8 5.217h-3.365v-3.39z"/></svg>