<svg viewBox="0 0 24 24" xmlns="http://www.w3.org/2000/svg"><path d="M23.478 1.565v5.218c0 .574-.47 1.043-1.043 1.043-.574 0-1.044-.47-1.044-1.043V4.096l-6.052 6.052a1.03 1.03 0 01-.73.313 1.03 1.03 0 01-.73-.313 1.04 1.04 0 010-1.487l6.025-6.052h-2.687c-.573 0-1.043-.47-1.043-1.044 0-.574.47-1.043 1.043-1.043h5.218c.287 0 .548.104.73.313a.947.947 0 01.313.73zm-1.043 14.609c-.574 0-1.044.47-1.044 1.043v2.687l-5.947-5.895a1.07 1.07 0 00-1.54 1.487L19.8 21.39h-2.687c-.574 0-1.043.47-1.043 1.044 0 .574.47 1.043 1.043 1.043h5.217c.287 0 .6-.104.783-.313.209-.209.365-.47.365-.73v-5.218c0-.573-.47-1.043-1.043-1.043zM8.557 13.957l-5.948 5.947v-2.687c0-.573-.47-1.043-1.044-1.043-.574 0-1.043.47-1.043 1.043v5.218c0 .287.104.548.313.73.208.209.47.313.756.313H6.81c.574 0 1.043-.47 1.043-1.043 0-.574-.47-1.044-1.043-1.044H4.096l5.947-5.947c.418-.418.392-1.07 0-1.488-.39-.417-1.07-.417-1.486 0zM4.096 2.713h2.687c.574 0 1.043-.47 1.043-1.043 0-.574-.47-1.044-1.043-1.044H1.565a.947.947 0 00-.73.313.947.947 0 00-.313.73v5.218c0 .574.47 1.043 1.043 1.043.574 0 1.044-.47 1.044-1.043V4.174L8.635 10.2c.208.209.47.313.73.313.261 0 .522-.104.73-.313a1.04 1.04 0 000-1.487l-6-6z"/></svg>