<svg viewBox="0 0 24 24" xmlns="http://www.w3.org/2000/svg"><path d="M22.956 12.783c-.26 0-.521-.105-.73-.287L12 2.504 1.774 12.496a1.063 1.063 0 01-1.487-.026 1.063 1.063 0 01.026-1.487L11.27.287a1.056 1.056 0 011.46 0l10.957 10.696c.417.391.417 1.07.026 1.487a1.09 1.09 0 01-.757.313zm-2.295 10.174v-10.2c0-.574-.47-1.044-1.044-1.044-.574 0-1.043.47-1.043 1.044v9.156h-3.261v-5.582c0-.757-.626-1.383-1.383-1.383h-3.86c-.757 0-1.383.626-1.383 1.383v5.582H5.426v-9.156c0-.574-.47-1.044-1.043-1.044-.574 0-1.044.47-1.044 1.044v10.2c0 .573.47 1.043 1.044 1.043H9.73c.574 0 1.044-.47 1.044-1.043v-5.922h2.478v5.922c0 .573.47 1.043 1.044 1.043h5.347c.574 0 1.018-.47 1.018-1.043z"/></svg>