<svg viewBox="0 0 24 24" xmlns="http://www.w3.org/2000/svg"><path d="M23.687 16.67l-6.209-6.21a1.04 1.04 0 00-1.487 0l-2.034 2.036-2.453-2.453L13.54 8.01a1.04 1.04 0 000-1.487L7.33.313a1.04 1.04 0 00-1.487 0L.313 5.87A.947.947 0 000 6.6c0 .287.104.548.313.73l6.209 6.21c.208.208.47.312.73.312.261 0 .522-.104.73-.313l2.035-2.035 2.453 2.453-2.035 2.034a1.04 1.04 0 000 1.487l6.208 6.209c.21.209.47.313.73.313a.947.947 0 00.731-.313l5.557-5.557a.988.988 0 00.026-1.46zM7.252 11.322L2.53 6.6 6.6 2.53l4.722 4.722-1.305 1.305-.782-.783a1.04 1.04 0 00-1.487 0 1.04 1.04 0 000 1.487l.782.783-1.278 1.278zM17.4 21.47l-4.722-4.722 1.305-1.305.782.783c.209.209.47.313.73.313.262 0 .522-.104.731-.313a1.04 1.04 0 000-1.487l-.782-.783 1.304-1.304 4.722 4.722-4.07 4.096z"/></svg>