<svg viewBox="0 0 24 24" xmlns="http://www.w3.org/2000/svg"><path d="M24 5.974V5.79c0-.026-.026-.052-.026-.104 0-.026-.026-.078-.026-.104 0-.026-.026-.053-.052-.079-.026-.026-.026-.078-.052-.104v-.026l-.053-.052-.078-.078c-.026-.027-.052-.053-.078-.053-.026-.026-.052-.052-.078-.052-.026-.026-.053-.026-.079-.052-.026-.026-.052-.026-.078-.052-.026 0-.078-.026-.104-.026-.026 0-.052-.026-.105-.026H.861c-.026 0-.052.026-.104.026-.026 0-.079.026-.105.026-.026 0-.052.026-.078.052-.026.026-.052.026-.078.052-.026.026-.052.026-.079.052-.026.026-.052.053-.078.053l-.078.078-.052.052V5.4a.198.198 0 00-.052.104c-.026.026-.026.053-.053.079-.026.026-.026.052-.026.104 0 .026-.026.052-.026.104V18c0 .574.47 1.044 1.044 1.044h21.913c.574 0 1.043-.47 1.043-1.044L24 5.974c0 .026 0 0 0 0zm-4.2 1.07l-7.8 5.79-7.8-5.79h15.6zM2.087 16.957v-8.87l9.287 6.887c.183.13.391.209.626.209s.444-.079.626-.209l9.287-6.887v8.87H2.087z"/></svg>