<svg viewBox="0 0 24 24" xmlns="http://www.w3.org/2000/svg"><path d="M12 14.896c3.86 0 7.017-3.157 7.017-7.044 0-3.913-3.156-7.07-7.017-7.07-3.86 0-7.017 3.157-7.017 7.044 0 3.913 3.156 7.07 7.017 7.07zM12 2.87c2.713 0 4.93 2.217 4.93 4.956 0 2.74-2.217 4.957-4.93 4.957-2.713 0-4.93-2.218-4.93-4.957 0-2.74 2.217-4.956 4.93-4.956zm3.26 12.704a1.048 1.048 0 00-.99.209L12 17.713l-2.27-1.93a1.063 1.063 0 00-.99-.21c-1.462.47-8.74 2.975-8.74 6.6 0 .575.47 1.044 1.043 1.044h21.913c.574 0 1.044-.47 1.044-1.043 0-3.626-7.278-6.13-8.74-6.6zM2.636 21.13c1.148-1.226 3.913-2.582 6.208-3.365l2.479 2.113c.391.34.965.34 1.356 0l2.478-2.113c2.296.809 5.061 2.165 6.21 3.365H2.634z"/></svg>