<svg width="445" height="722" fill="none" xmlns="http://www.w3.org/2000/svg"><g filter="url(#filter0_d)"><path fill-rule="evenodd" clip-rule="evenodd" d="M432.467 20l-53.512 18.025c-53.512 18.57-89.305 59.497-95.994 96.093-6.689 36.596 23.921 65.545 35.793 104.365 7.265 50.719-33.445 72.645-46.823 109.241-13.378 36.596 13.378 72.646 46.823 109.242 33.445 36.596 73.579 72.645 86.957 109.241 13.378 36.596 0 72.646-6.689 91.217l-6.689 18.025H71.261V20h361.206z" fill="#9434C1"/></g><g filter="url(#filter1_d)"><path fill-rule="evenodd" clip-rule="evenodd" d="M412.112 32.91L358.6 50.935c-53.512 18.57-89.305 59.497-95.994 96.093-6.689 36.596 23.921 65.545 35.793 104.365 7.265 50.719-33.445 72.645-46.823 109.241-13.378 36.596 13.378 72.646 46.823 109.242 33.445 36.596 73.579 72.645 86.957 109.241 13.378 36.596 0 72.646-6.689 91.217l-6.689 18.025H50.906V32.91h361.206z" fill="#9434C1"/></g><g filter="url(#filter2_d)"><path fill-rule="evenodd" clip-rule="evenodd" d="M389.206 46.527l-53.512 18.025c-53.512 18.57-89.305 59.497-95.994 96.093-6.689 36.596 23.921 65.545 35.793 104.365 7.265 50.719-33.445 72.645-46.823 109.241-13.378 36.596 13.378 72.646 46.823 109.242 33.445 36.596 73.579 72.645 86.957 109.241 13.378 36.596 0 72.646-6.689 91.217l-6.689 18.025H28V46.527h361.206z" fill="#9434C1"/></g><defs><filter id="filter0_d" x="43.261" y="0" width="401.206" height="695.449" filterUnits="userSpaceOnUse" color-interpolation-filters="sRGB"><feFlood flood-opacity="0" result="BackgroundImageFix"/><feColorMatrix in="SourceAlpha" values="0 0 0 0 0 0 0 0 0 0 0 0 0 0 0 0 0 0 127 0"/><feOffset dx="-8"/><feGaussianBlur stdDeviation="10"/><feColorMatrix values="0 0 0 0 0.14902 0 0 0 0 0.0980392 0 0 0 0 0.164706 0 0 0 0.65 0"/><feBlend in2="BackgroundImageFix" result="effect1_dropShadow"/><feBlend in="SourceGraphic" in2="effect1_dropShadow" result="shape"/></filter><filter id="filter1_d" x="22.906" y="12.91" width="401.206" height="695.449" filterUnits="userSpaceOnUse" color-interpolation-filters="sRGB"><feFlood flood-opacity="0" result="BackgroundImageFix"/><feColorMatrix in="SourceAlpha" values="0 0 0 0 0 0 0 0 0 0 0 0 0 0 0 0 0 0 127 0"/><feOffset dx="-8"/><feGaussianBlur stdDeviation="10"/><feColorMatrix values="0 0 0 0 0.14902 0 0 0 0 0.0980392 0 0 0 0 0.164706 0 0 0 0.65 0"/><feBlend in2="BackgroundImageFix" result="effect1_dropShadow"/><feBlend in="SourceGraphic" in2="effect1_dropShadow" result="shape"/></filter><filter id="filter2_d" x="0" y="26.527" width="401.206" height="695.449" filterUnits="userSpaceOnUse" color-interpolation-filters="sRGB"><feFlood flood-opacity="0" result="BackgroundImageFix"/><feColorMatrix in="SourceAlpha" values="0 0 0 0 0 0 0 0 0 0 0 0 0 0 0 0 0 0 127 0"/><feOffset dx="-8"/><feGaussianBlur stdDeviation="10"/><feColorMatrix values="0 0 0 0 0.14902 0 0 0 0 0.0980392 0 0 0 0 0.164706 0 0 0 0.65 0"/><feBlend in2="BackgroundImageFix" result="effect1_dropShadow"/><feBlend in="SourceGraphic" in2="effect1_dropShadow" result="shape"/></filter></defs></svg>