<svg viewBox="0 0 24 24" xmlns="http://www.w3.org/2000/svg"><path d="M21.912 12.0008C21.912 12.5747 21.4425 13.0442 20.8685 13.0442H5.63376L10.3555 17.7921C10.7729 18.2095 10.7729 18.8616 10.3555 19.279C10.1729 19.4616 9.91203 19.566 9.62507 19.566C9.3642 19.566 9.07724 19.4616 8.89463 19.2529L2.39898 12.7312C1.98159 12.3138 1.98159 11.6616 2.39898 11.2703L8.89463 4.74859C9.31203 4.3312 9.9642 4.3312 10.3816 4.74859C10.799 5.16598 10.799 5.81816 10.3816 6.23555L5.63376 10.9573H20.8685C21.4425 10.9573 21.912 11.4269 21.912 12.0008Z" /></svg>